<svg width="394" height="394" viewBox="0 0 394 394" fill="none" xmlns="http://www.w3.org/2000/svg">
<g clip-path="url(#clip0)">
<g filter="url(#filter0_d)">
<path d="M160.462 309.128C97.9434 311.311 46.8213 300.465 46.2779 284.902C45.7344 269.339 95.9753 254.954 158.494 252.77C221.013 250.587 272.135 261.433 272.678 276.996C273.222 292.559 222.981 306.945 160.462 309.128Z" fill="white" stroke="white" stroke-width="20"/>
<path fill-rule="evenodd" clip-rule="evenodd" d="M143.359 283.102C143.359 283.102 85.3819 289.49 68.6115 285.712C24.3261 275.736 31.4477 244.106 31.4477 244.106C31.4477 244.106 46.1815 251.32 81.893 255.985C94.8304 257.675 128.94 254.342 128.94 254.342" fill="white"/>
<path d="M143.359 283.102C143.359 283.102 85.3819 289.49 68.6115 285.712C24.3261 275.736 31.4477 244.106 31.4477 244.106C31.4477 244.106 46.1815 251.32 81.893 255.985C94.8304 257.675 128.94 254.342 128.94 254.342" stroke="white" stroke-width="20" stroke-linecap="round" stroke-linejoin="round"/>
<path fill-rule="evenodd" clip-rule="evenodd" d="M143.432 285.147C94.0369 296.829 54.28 285.336 54.0488 278.715C109.98 283.391 133.159 272.155 129.809 256.359C134.355 269.133 149.373 292.921 143.432 285.147Z" fill="#D8D8D8" stroke="white" stroke-width="20" stroke-linecap="round" stroke-linejoin="round"/>
<path d="M143.951 285.335C23.034 309.111 30.661 243.611 30.661 243.611C30.661 243.611 87.8467 261.854 130.623 256.53" stroke="white" stroke-width="20" stroke-linecap="round" stroke-linejoin="round"/>
<path fill-rule="evenodd" clip-rule="evenodd" d="M97.7917 237.885C102.923 237.706 105.062 271.848 121.907 289.568C121.907 289.568 134.691 296.057 146.754 286.848L147.676 286.936C157.762 289.97 186.275 289.404 191.59 288.99C202.204 303.877 223.148 293.343 223.148 293.343C224.56 290.96 225.924 288.466 227.239 285.889C234.047 287.507 245.82 283.509 245.715 280.497C256.699 252.888 261.477 232.169 261.249 221.978C261.021 211.787 254.112 182.046 248.605 163.41C247.819 160.752 241.847 152.342 241.159 150.024C196.711 139.21 150.41 141.51 150.41 141.51L129.504 148.358C129.504 148.358 94.0635 188.826 96.1716 191.489C92.499 209.656 93.0052 224.152 97.7917 237.885Z" fill="white" stroke="white" stroke-width="20" stroke-linecap="round" stroke-linejoin="round"/>
<path fill-rule="evenodd" clip-rule="evenodd" d="M93.9911 234.559C93.9911 234.559 101.362 271.071 118.242 288.953L147.367 291.853L153.995 296.34C156.488 297.096 167.871 298.519 174.618 295.62C179.036 293.722 177.899 289.727 183.6 288.93C192.566 287.677 204.779 289.779 211.433 291.941C212.847 289.537 219.727 286.992 226.427 287.434C228.377 277.627 229.477 252.66 229.477 252.66C229.477 252.66 221.043 276.41 210.903 276.764C200.763 277.118 196.403 253.815 196.403 253.815C196.403 253.815 208.775 218.165 200.931 218.439C195.002 218.646 176.937 254.495 176.937 254.495C176.937 254.495 185.55 285.682 183.521 286.673C168.898 293.821 148.054 248.962 147.71 248.253C138.344 228.923 130.992 174.741 163.66 157.786C170.904 154.026 158.595 138.21 158.595 138.21C158.595 138.21 113.447 151.647 102.341 175.742C88.0553 206.735 93.7783 228.465 93.9911 234.559Z" fill="#D8D8D8" stroke="white" stroke-width="20" stroke-linecap="round" stroke-linejoin="round"/>
<path fill-rule="evenodd" clip-rule="evenodd" d="M249.187 216.232C252.678 230.42 244.084 263.994 224.003 292.634C224.003 292.634 202.678 301.83 192.08 288.951C192.08 288.951 201.353 245.187 203.482 231.309" fill="white"/>
<path d="M249.187 216.232C252.678 230.42 244.084 263.994 224.003 292.634C224.003 292.634 202.678 301.83 192.08 288.951C192.08 288.951 201.353 245.187 203.482 231.309" stroke="white" stroke-width="20" stroke-linecap="round" stroke-linejoin="round"/>
<path d="M238.893 155.48C238.893 155.48 262.185 180.225 261.675 229.577C261.675 229.577 260.151 260.237 243.398 284.498C243.398 284.498 235.699 289.096 226.199 286.908" stroke="white" stroke-width="20" stroke-linecap="round" stroke-linejoin="round"/>
<path d="M155.355 136.722C155.355 136.722 76.5473 153.929 95.0243 235.168C95.0243 235.168 103.795 273.322 120.727 291.24C120.727 291.24 142.065 294.193 149.82 293.09" stroke="white" stroke-width="20" stroke-linecap="round" stroke-linejoin="round"/>
<path d="M193.391 287.338C192.825 287.403 189.376 287.861 185.204 287.898" stroke="white" stroke-width="20" stroke-linecap="round" stroke-linejoin="round"/>
<path d="M120.443 192.162C120.443 192.162 118.939 253.841 152.676 294.677C152.676 294.677 174.371 303.795 183.84 287.982C183.84 287.982 171.416 237.654 168.276 221.634" stroke="white" stroke-width="20" stroke-linecap="round" stroke-linejoin="round"/>
<path fill-rule="evenodd" clip-rule="evenodd" d="M154.119 101.97C154.119 101.97 184.276 40.7433 194.717 41.3409C201.413 41.7208 213.31 73.9995 213.31 73.9995" fill="#D8D8D8"/>
<path d="M154.119 101.97C154.119 101.97 184.276 40.7433 194.717 41.3409C201.413 41.7208 213.31 73.9995 213.31 73.9995" stroke="white" stroke-width="20" stroke-linecap="round" stroke-linejoin="round"/>
<path fill-rule="evenodd" clip-rule="evenodd" d="M184.069 82.908C185.142 67.5715 189.273 52.7745 197.417 43.6005C202.063 38.3655 213.113 76.8135 213.113 76.8135C213.113 76.8135 192.283 79.9259 184.069 82.908Z" fill="white" stroke="white" stroke-width="20" stroke-linecap="round" stroke-linejoin="round"/>
<path d="M155.605 102.258C155.605 102.258 185.012 42.3032 195.187 42.8849C201.712 43.2548 213.295 74.854 213.295 74.854" stroke="white" stroke-width="20" stroke-linecap="round" stroke-linejoin="round"/>
<path d="M184.688 74.0618C184.688 74.0618 191.994 49.7077 195.896 44.4454" stroke="white" stroke-width="20" stroke-linecap="round" stroke-linejoin="round"/>
<path fill-rule="evenodd" clip-rule="evenodd" d="M284.275 103.049C284.218 106.308 296.385 66.2482 292.872 61.3137C288.19 54.662 241.531 79.2038 241.531 79.2038L284.275 103.049Z" fill="#D8D8D8" stroke="white" stroke-width="20" stroke-linecap="round" stroke-linejoin="round"/>
<path fill-rule="evenodd" clip-rule="evenodd" d="M284.275 103.049C287.314 94.1078 298.436 65.7187 294.923 60.7843C290.241 54.1325 259.493 83.2178 259.493 83.2178L284.275 103.049Z" fill="white" stroke="white" stroke-width="20" stroke-linecap="round" stroke-linejoin="round"/>
<path d="M284.542 103.341C284.542 103.341 296.981 65.7635 293.583 60.872C289.054 54.2781 241.533 79.0334 241.533 79.0334" stroke="white" stroke-width="20" stroke-linecap="round" stroke-linejoin="round"/>
<path d="M265.584 78.6497C265.584 78.6497 285.665 61.4404 293.521 59.8086" stroke="white" stroke-width="20" stroke-linecap="round" stroke-linejoin="round"/>
<path fill-rule="evenodd" clip-rule="evenodd" d="M156.961 145.826C148.245 125.703 147.055 118.433 156.228 100.381C158.86 95.2014 170.776 81.7104 193.929 76.3935C203.922 74.0988 223.583 70.7508 243.675 74.6563C263.767 78.5618 277.92 97.1271 277.92 97.1271C277.92 97.1271 286.391 109.142 287.305 117.029C289.368 134.823 279.16 148.149 279.16 148.149L265.186 162.638C265.186 162.638 239.066 172.997 228.999 172.882C183.74 172.362 161.715 156.8 156.961 145.826Z" fill="white" stroke="white" stroke-width="20" stroke-linecap="round" stroke-linejoin="round"/>
<path fill-rule="evenodd" clip-rule="evenodd" d="M221.128 194.144C204.008 200.719 200.543 203.863 187.307 195.325C159.747 177.547 149.483 143.018 151.423 127.514C181.348 181.725 254.82 160.788 279.548 148.305C279.548 148.305 265.575 164.639 252.246 170.384C243.258 180.741 238.248 187.568 221.128 194.144Z" fill="#D8D8D8" stroke="white" stroke-width="20" stroke-linecap="round" stroke-linejoin="round"/>
<path d="M176.028 158.478C176.028 158.478 197.67 174.029 225.702 173.735C238.809 173.618 258.404 171.779 274.799 154.77C291.442 137.507 300.066 98.5268 253.891 78.81C241.746 73.6268 220.617 73.6468 204.468 75.3276C189.386 76.8865 154.433 84.531 149.145 115.917C148.02 122.53 152.034 136.227 155.157 145.81" stroke="white" stroke-width="20" stroke-linecap="round" stroke-linejoin="round"/>
<path d="M274.854 107.099C276.281 109.491 277.1 112.314 277.147 115.332C277.202 124.057 270.473 131.143 262.114 131.183C253.95 131.216 247.273 124.488 246.909 116.048" stroke="white" stroke-width="20" stroke-linecap="round" stroke-linejoin="round"/>
<path d="M277.8 106.79C277.8 106.79 266.47 104.018 246.822 114.74" stroke="white" stroke-width="20" stroke-linecap="round" stroke-linejoin="round"/>
<path d="M190.853 93.7195C190.853 93.7195 223.351 93.1486 235.418 112.982" stroke="white" stroke-width="20" stroke-linecap="round" stroke-linejoin="round"/>
<path d="M208.852 113.267C207.75 117.222 208.901 120.977 211.464 121.72C214.027 122.463 217.052 119.838 218.148 115.93C219.25 111.975 218.099 108.22 215.536 107.477C212.972 106.734 209.954 109.312 208.852 113.267Z" fill="black"/>
<path d="M208.852 113.267C207.75 117.222 208.901 120.977 211.464 121.72C214.027 122.463 217.052 119.838 218.148 115.93C219.25 111.975 218.099 108.22 215.536 107.477C212.972 106.734 209.954 109.312 208.852 113.267" stroke="white" stroke-width="20"/>
<path d="M258.738 120.612C257.636 124.566 258.786 128.322 261.35 129.065C263.913 129.808 266.937 127.183 268.033 123.275C269.135 119.32 267.985 115.564 265.421 114.822C262.858 114.079 259.84 116.657 258.738 120.612Z" fill="black"/>
<path d="M258.738 120.612C257.636 124.566 258.786 128.322 261.35 129.065C263.913 129.808 266.937 127.183 268.033 123.275C269.135 119.32 267.985 115.564 265.421 114.822C262.858 114.079 259.84 116.657 258.738 120.612" stroke="white" stroke-width="20"/>
<path d="M233.01 118.953C234.374 119.102 240.988 119.808 240.988 119.808C240.988 119.808 247.602 120.514 248.967 120.663C250.331 120.812 246.241 129.252 240.086 128.611C233.918 127.924 231.645 118.804 233.01 118.953Z" fill="black"/>
<path d="M233.01 118.953C234.374 119.102 240.988 119.808 240.988 119.808C240.988 119.808 247.602 120.514 248.967 120.663C250.331 120.812 246.241 129.252 240.086 128.611C233.918 127.924 231.645 118.804 233.01 118.953" stroke="white" stroke-width="20"/>
<path d="M240.226 127.392C240.226 127.392 238.008 138.095 228.995 147.8" stroke="white" stroke-width="20" stroke-linecap="round" stroke-linejoin="round"/>
<path d="M241.787 146.489C241.787 146.489 241.208 137.472 239.76 126.79" stroke="white" stroke-width="20" stroke-linecap="round" stroke-linejoin="round"/>
<path d="M245.271 152.749C237.288 159.9 231.719 150.89 231.719 150.89" stroke="white" stroke-width="20" stroke-linecap="round" stroke-linejoin="round"/>
<path d="M229.999 108.92C229.903 119.034 220.683 127.147 209.406 127.039C198.129 126.932 189.066 118.645 189.162 108.53C189.201 104.44 190.731 100.678 193.286 97.6544" stroke="white" stroke-width="20" stroke-linecap="round" stroke-linejoin="round"/>
<path d="M213.254 212.465L199.685 209.827L202.331 196.213L215.9 198.851L213.254 212.465V212.465Z" fill="black" stroke="white" stroke-width="20"/>
<path d="M216.449 196.024L202.88 193.386L205.527 179.773L219.096 182.41L216.449 196.024V196.024Z" fill="black" stroke="white" stroke-width="20"/>
<path d="M200.063 192.839L186.494 190.201L189.14 176.587L202.709 179.225L200.063 192.839Z" fill="black" stroke="white" stroke-width="20"/>
<path d="M206.196 191.142L214.259 192.71L215.832 184.62L207.769 183.052L206.196 191.142Z" fill="#D8D8D8" stroke="white" stroke-width="20"/>
<path d="M203.001 207.583L211.064 209.15L212.637 201.06L204.573 199.493L203.001 207.583Z" fill="#D8D8D8" stroke="white" stroke-width="20"/>
<path d="M189.809 187.957L197.873 189.524L199.445 181.434L191.382 179.867L189.809 187.957Z" fill="#D8D8D8" stroke="white" stroke-width="20"/>
<path d="M212.723 186.724L209.861 186.167L209.303 189.038L212.165 189.594L212.723 186.724Z" fill="black" stroke="white" stroke-width="20"/>
<path d="M196.336 183.538L193.475 182.982L192.917 185.853L195.778 186.409L196.336 183.538Z" fill="black" stroke="white" stroke-width="20"/>
<path d="M209.527 203.165L206.666 202.609L206.108 205.479L208.969 206.035L209.527 203.165Z" fill="black" stroke="white" stroke-width="20"/>
<path d="M187.363 201.7L184.502 201.144L183.944 204.014L186.805 204.57L187.363 201.7Z" fill="black" stroke="white" stroke-width="20"/>
<path d="M197.896 203.747L195.035 203.191L194.477 206.062L197.338 206.618L197.896 203.747Z" fill="black" stroke="white" stroke-width="20"/>
<path d="M193.605 197.587L190.744 197.031L189.138 205.295L191.999 205.851L193.605 197.587Z" fill="black" stroke="white" stroke-width="20"/>
<path d="M199.453 195.744L196.592 195.188L196.034 198.059L198.895 198.615L199.453 195.744Z" fill="black" stroke="white" stroke-width="20"/>
<path d="M188.812 193.541L186.168 193.027L185.069 198.681L187.713 199.195L188.812 193.541Z" fill="black" stroke="white" stroke-width="20"/>
<path d="M197.406 206.27L184.01 203.666L183.452 206.537L196.848 209.141L197.406 206.27Z" fill="black" stroke="white" stroke-width="20"/>
<path d="M188.551 177.608C176.997 175.362 164.655 167.333 151.525 153.52" stroke="white" stroke-width="20" stroke-linecap="round" stroke-linejoin="round"/>
<path d="M252.106 171.536C239.795 185.649 217.683 183.272 217.683 183.272" stroke="white" stroke-width="20" stroke-linecap="round" stroke-linejoin="round"/>
<path d="M251.572 353.109C186.028 355.398 132.434 344.092 131.867 327.857C131.301 311.622 183.975 296.606 249.519 294.317C315.062 292.028 368.656 303.334 369.223 319.569C369.79 335.803 317.116 350.82 251.572 353.109Z" fill="white" stroke="white" stroke-width="20"/>
<path opacity="0.22" d="M251.572 353.109C186.028 355.398 132.434 344.092 131.867 327.857C131.301 311.622 183.975 296.606 249.519 294.317C315.062 292.028 368.656 303.334 369.223 319.569C369.79 335.804 317.116 350.82 251.572 353.109Z" fill="#C7C7C7"/>
<path d="M338.494 312.295L273.413 280.443L155.194 293.103L155.921 313.944L216.127 345.853L339.229 333.135C339.229 333.135 335.201 329.471 335.056 325.332C334.912 321.194 338.501 312.294 338.501 312.294L338.494 312.295Z" fill="#898578"/>
<path d="M329.209 290.682L264.128 258.831L145.908 271.49L148.87 279.304L146.636 292.332L206.842 324.241L329.943 311.523L329.216 290.682L329.209 290.682Z" fill="#C4BFAD"/>
<path d="M332.792 288.415C334.464 288.356 340.806 291.146 339.286 291.199C337.766 291.252 222.205 314.831 222.205 314.831L156.779 283.105L176.414 277.369" fill="#E5E3C1"/>
<path d="M339.398 268.39L274.317 236.539L156.098 249.198L156.826 270.039L217.032 301.948L340.133 289.231L339.405 268.389L339.398 268.39Z" fill="#E5E3C1"/>
<path d="M155.796 249.208L156.524 270.05L216.73 301.959L338.879 288.202L335.443 271.181L216.157 284.729L155.796 249.208Z" fill="#C4BFAD"/>
<path d="M303.919 264.246L227.976 273.194" stroke="white" stroke-width="20" stroke-linecap="round" stroke-linejoin="round"/>
<path d="M291.509 257.875L215.566 266.823" stroke="white" stroke-width="20" stroke-linecap="round" stroke-linejoin="round"/>
<path d="M276.601 249.725L236.31 254.473" stroke="white" stroke-width="20" stroke-linecap="round" stroke-linejoin="round"/>
<path d="M206.247 259.177L184.293 263.065C184.293 263.065 183.928 308.704 175.837 312.947C174.526 307.042 174.654 301.106 174.654 301.106L165.428 307.4C165.428 307.4 172.168 294.238 171.841 284.868C171.513 275.498 171.457 257.954 171.457 257.954L183.071 254.197L206.247 259.177Z" fill="#726FD4" stroke="white" stroke-width="20" stroke-linecap="round" stroke-linejoin="round"/>
<path d="M206.247 259.177L184.293 263.065L171.457 257.954L183.071 254.197L206.247 259.177Z" fill="#BAB8FF" stroke="white" stroke-width="20" stroke-linecap="round" stroke-linejoin="round"/>
<path d="M206.247 259.177L184.293 263.065C184.293 263.065 183.928 308.704 175.837 312.947C174.526 307.042 174.654 301.106 174.654 301.106L165.428 307.4C165.428 307.4 172.168 294.238 171.841 284.868C171.513 275.498 171.457 257.954 171.457 257.954L183.071 254.197L206.247 259.177Z" stroke="white" stroke-width="20" stroke-linecap="round" stroke-linejoin="round"/>
<path d="M198.339 259.543C187.247 259.93 178.16 257.52 178.043 254.158C177.925 250.797 186.822 247.758 197.914 247.371C209.006 246.984 218.093 249.394 218.211 252.756C218.328 256.117 209.431 259.156 198.339 259.543Z" fill="#D8D8D8" stroke="white" stroke-width="20"/>
<path d="M218.095 249.47C217.978 246.109 208.891 243.698 197.799 244.086C186.707 244.473 177.81 247.512 177.928 250.873C177.95 251.509 178.033 253.888 178.055 254.525C178.172 257.886 187.259 260.297 198.351 259.909C209.444 259.522 218.34 256.483 218.223 253.122C218.201 252.486 218.118 250.106 218.095 249.47Z" fill="#F37777" stroke="white" stroke-width="20"/>
<path d="M218.095 249.47C217.978 246.109 208.891 243.698 197.799 244.086C186.707 244.473 177.81 247.512 177.928 250.873C177.95 251.509 178.033 253.888 178.055 254.525C178.172 257.886 187.259 260.297 198.351 259.909C209.444 259.522 218.34 256.483 218.223 253.122C218.201 252.486 218.118 250.106 218.095 249.47Z" fill="#F37777" stroke="white" stroke-width="20"/>
<path d="M196.919 247.975C185.827 248.363 177.81 247.512 177.928 250.873C177.95 251.509 178.033 253.888 178.055 254.525C178.173 257.886 187.26 260.297 198.352 259.909C209.444 259.522 218.341 256.483 218.223 253.122C218.206 252.628 218.739 250.887 210.792 249.725C209.427 249.526 188.653 252.484 185.281 252.038C183.017 251.739 197.913 247.941 196.919 247.975Z" fill="#BF4444" stroke="white" stroke-width="20"/>
<path d="M218.095 249.47C217.978 246.109 208.891 243.698 197.799 244.086C186.707 244.473 177.81 247.512 177.928 250.873C177.95 251.509 178.033 253.888 178.055 254.525C178.172 257.886 187.259 260.297 198.351 259.909C209.444 259.522 218.34 256.483 218.223 253.122C218.201 252.486 218.118 250.106 218.095 249.47Z" stroke="white" stroke-width="20"/>
<path d="M212.03 250.291C212.089 251.972 205.869 253.553 198.138 253.823C190.408 254.093 184.093 252.95 184.034 251.269C183.976 249.588 190.195 248.007 197.926 247.737" fill="#F37777"/>
<path d="M212.03 250.291C212.089 251.972 205.869 253.553 198.138 253.823V253.823C190.408 254.093 184.093 252.95 184.034 251.269C183.976 249.588 190.195 248.007 197.926 247.737" stroke="white" stroke-width="20" stroke-linecap="round" stroke-linejoin="round"/>
<path d="M106.255 292.374C106.138 289.013 97.0511 286.602 85.959 286.989C74.867 287.377 65.9703 290.415 66.0877 293.777C66.1099 294.413 66.193 296.792 66.2152 297.428C66.3326 300.79 75.4196 303.2 86.5116 302.813C97.6037 302.426 106.5 299.387 106.383 296.026C106.361 295.39 106.278 293.01 106.255 292.374Z" fill="#E3B66B" stroke="white" stroke-width="20"/>
<path d="M76.7194 274.281C78.8806 289.659 84.7071 319.281 84.7071 319.281L91.5478 318.319C91.5478 318.319 90.9119 297.809 87.3945 272.781C81.3495 273.631 83.6255 273.311 76.7194 274.281Z" fill="#647DD7" stroke="white" stroke-width="20" stroke-linecap="round" stroke-linejoin="round"/>
<path d="M76.7196 274.281C78.8808 289.659 84.7074 319.281 84.7074 319.281L87.7063 318.859C87.7063 318.859 85.6776 298.545 82.1602 273.517C76.1152 274.366 82.2364 273.506 76.7196 274.281Z" fill="#314489" stroke="white" stroke-width="20" stroke-linecap="round" stroke-linejoin="round"/>
<path d="M76.7194 274.281C78.8806 289.659 84.7071 319.281 84.7071 319.281L91.5478 318.319C91.5478 318.319 90.9119 297.809 87.3945 272.781C81.3495 273.631 83.6255 273.311 76.7194 274.281Z" stroke="white" stroke-width="20" stroke-linecap="round" stroke-linejoin="round"/>
<path d="M88.399 271.174C88.1829 269.637 85.0379 268.808 81.3743 269.323C77.7107 269.838 74.9159 271.501 75.1319 273.038C75.1728 273.329 75.3257 274.417 75.3666 274.708C75.5826 276.246 78.7277 277.074 82.3913 276.559C86.0549 276.044 88.8497 274.381 88.6337 272.844C88.5928 272.553 88.4399 271.465 88.399 271.174Z" fill="#E3B66B" stroke="white" stroke-width="20"/>
<path d="M78.6659 226.656L71.8252 227.617C71.8252 227.617 74.3892 257.697 76.5504 273.075C82.1423 274.134 85.5648 272.884 87.2256 271.575C83.7082 246.547 78.6659 226.656 78.6659 226.656Z" fill="#647DD7" stroke="white" stroke-width="20" stroke-linecap="round" stroke-linejoin="round"/>
<path d="M75.5317 227.096L71.8254 227.617C71.8254 227.617 74.3894 257.697 76.5506 273.075C82.1425 274.134 80.4066 273.609 82.0674 272.3C78.55 247.272 75.5317 227.096 75.5317 227.096Z" fill="#314489" stroke="white" stroke-width="20" stroke-linecap="round" stroke-linejoin="round"/>
<path d="M78.6659 226.656L71.8252 227.617C71.8252 227.617 74.3892 257.697 76.5504 273.075C82.1423 274.134 85.5648 272.884 87.2256 271.575C83.7082 246.547 78.6659 226.656 78.6659 226.656Z" stroke="white" stroke-width="20" stroke-linecap="round" stroke-linejoin="round"/>
<path d="M75.1029 224.697C71.8197 225.158 71.4915 229.63 71.559 230.11C71.9153 232.645 73.8521 232.714 76.1835 232.386C78.5149 232.058 80.3579 231.459 80.0016 228.924C79.9342 228.444 78.3861 224.236 75.1029 224.697Z" fill="#E3B66B" stroke="white" stroke-width="20"/>
<path d="M78.316 347.339C55.1235 348.149 36.1577 344.091 35.9546 338.276C35.7515 332.461 54.3881 327.09 77.5806 326.281C100.773 325.471 119.739 329.528 119.942 335.343C120.145 341.159 101.508 346.529 78.316 347.339Z" fill="white" stroke="white" stroke-width="20"/>
<path opacity="0.22" d="M78.316 347.339C55.1235 348.148 36.1577 344.091 35.9546 338.276C35.7515 332.461 54.3881 327.09 77.5806 326.28C100.773 325.47 119.739 329.528 119.942 335.343C120.145 341.158 101.508 346.529 78.316 347.339Z" fill="black" stroke="white" stroke-width="20"/>
<path d="M106.022 299.418C113.676 304.664 119.146 312.554 119.431 320.714C119.938 335.237 105.377 340.147 87.2267 340.781C69.0761 341.414 54.2086 337.532 53.7014 323.01C53.4089 314.632 58.5886 306.155 66.1792 300.373" fill="#314489"/>
<path d="M106.022 299.418C113.676 304.664 119.146 312.554 119.431 320.714C119.938 335.237 105.377 340.147 87.2267 340.781C69.0761 341.414 54.2086 337.532 53.7014 323.01C53.4089 314.632 58.5886 306.155 66.1792 300.373" stroke="white" stroke-width="20"/>
<path d="M66.8529 315.686C69.2595 313.036 90.2399 315.022 103.587 301.912C106.54 299.011 107.694 299.689 110.578 301.668C114.723 304.512 117.382 309.918 117.681 318.481C118.188 333.004 55.2817 328.43 66.8529 315.686Z" fill="#647DD7" stroke="white" stroke-width="20"/>
<path d="M66.172 296.211C66.1942 296.847 66.2773 299.227 66.2996 299.863C66.4169 303.224 75.504 305.635 86.596 305.247C97.688 304.86 106.585 301.821 106.467 298.46C106.445 297.824 106.362 295.444 106.34 294.808C106.34 294.808 93.4413 297.696 86.9496 297.923C80.0521 298.164 66.172 296.211 66.172 296.211Z" fill="#E3B66B" stroke="white" stroke-width="20"/>
<path d="M66.1715 296.211C66.1937 296.847 66.2768 299.227 66.299 299.863C66.4164 303.224 75.5034 305.635 86.5955 305.247C97.6875 304.86 101.287 303.225 101.17 299.864C101.148 299.228 101.065 296.848 101.043 296.212C101.043 296.212 93.4408 297.696 86.949 297.923C80.0515 298.164 66.1715 296.211 66.1715 296.211Z" fill="#BA8C3F" stroke="white" stroke-width="20"/>
<path d="M66.172 296.211C66.1943 296.847 66.2773 299.227 66.2996 299.863C66.4169 303.224 75.504 305.635 86.596 305.247C97.688 304.86 106.585 301.821 106.467 298.46C106.445 297.824 106.362 295.444 106.34 294.808" stroke="white" stroke-width="20" stroke-linecap="round" stroke-linejoin="round"/>
<path d="M71.0156 296.865C75.0638 297.726 80.4486 298.15 86.3407 297.944C92.5319 297.728 98.1159 296.857 102.148 295.622" stroke="white" stroke-width="20" stroke-linecap="round" stroke-linejoin="round"/>
<path d="M272.214 141.555C261.794 141.918 253.052 133.767 252.688 123.347C252.324 112.927 260.476 104.185 270.896 103.821C281.316 103.457 290.058 111.609 290.422 122.029C290.785 132.449 282.633 141.191 272.214 141.555Z" fill="url(#paint0_linear)" stroke="white" stroke-width="20"/>
<path fill-rule="evenodd" clip-rule="evenodd" d="M249.006 122.599C249.447 135.224 259.886 145.107 272.322 144.672C274.366 144.601 276.336 144.256 278.2 143.672C281.666 148.118 287.745 146.117 285.48 139.787C290.917 135.432 294.307 128.595 294.042 121.026C293.602 108.401 283.162 98.518 270.726 98.9523C258.289 99.3865 248.565 109.973 249.006 122.599ZM252.609 122.473C252.979 133.078 261.748 141.38 272.195 141.015C282.641 140.65 290.81 131.757 290.44 121.152C290.069 110.547 281.3 102.245 270.854 102.61C260.407 102.975 252.238 111.868 252.609 122.473Z" fill="#E3B66B"/>
<path d="M278.2 143.672L275.212 134.129L281.825 132.059L286.085 137.523L278.2 143.672ZM285.48 139.787L276.065 143.156L273.662 136.441L279.228 131.982L285.48 139.787ZM272.671 154.666C254.574 155.298 239.641 140.95 239.012 122.948L259 122.25C259.253 129.498 265.198 134.915 271.973 134.679L272.671 154.666ZM281.187 153.216C278.477 154.064 275.62 154.563 272.671 154.666L271.973 134.679C273.112 134.639 274.195 134.447 275.212 134.129L281.187 153.216ZM294.896 136.418C295.971 139.424 296.445 142.997 295.356 146.59C294.217 150.346 291.567 153.359 288.021 154.922C281.081 157.979 274.067 154.635 270.314 149.821L286.085 137.523C285.798 137.155 283.557 135.033 279.957 136.619C278.081 137.446 276.743 139.05 276.215 140.789C275.738 142.366 276.122 143.315 276.065 143.156L294.896 136.418ZM304.036 120.677C304.414 131.5 299.557 141.324 291.732 147.592L279.228 131.982C282.277 129.54 284.199 125.691 284.049 121.375L304.036 120.677ZM270.377 88.9583C288.474 88.3264 303.408 102.675 304.036 120.677L284.049 121.375C283.795 114.127 277.85 108.71 271.075 108.946L270.377 88.9583ZM239.012 122.948C238.383 104.945 252.279 89.5903 270.377 88.9583L271.075 108.946C264.299 109.183 258.747 115.001 259 122.25L239.012 122.948ZM272.544 151.009C256.436 151.571 243.173 138.804 242.615 122.822L262.603 122.124C262.785 127.352 267.06 131.188 271.846 131.021L272.544 151.009ZM300.433 120.803C300.992 136.785 288.651 150.446 272.544 151.009L271.846 131.021C276.632 130.854 280.628 126.729 280.446 121.501L300.433 120.803ZM270.505 92.6161C286.612 92.0536 299.875 104.821 300.433 120.803L280.446 121.501C280.263 116.273 275.988 112.437 271.203 112.604L270.505 92.6161ZM242.615 122.822C242.057 106.84 254.397 93.1786 270.505 92.6161L271.203 112.604C266.417 112.771 262.42 116.896 262.603 122.124L242.615 122.822Z" fill="white"/>
<path d="M284.092 146.014C284.961 146.731 302.132 182.619 288.475 202.482C280.392 214.237 259.897 207.445 259.897 207.445" stroke="white" stroke-width="20"/>
</g>
</g>
<path opacity="0.22" d="M160.462 309.128C97.9434 311.311 46.8214 300.465 46.2779 284.902C45.7344 269.339 95.9753 254.954 158.494 252.77C221.013 250.587 272.135 261.433 272.678 276.996C273.222 292.559 222.981 306.945 160.462 309.128Z" fill="black"/>
<path fill-rule="evenodd" clip-rule="evenodd" d="M143.359 283.102C143.359 283.102 85.3819 289.49 68.6115 285.712C24.3261 275.736 31.4477 244.106 31.4477 244.106C31.4477 244.106 46.1815 251.319 81.893 255.984C94.8304 257.674 128.94 254.342 128.94 254.342" fill="white"/>
<path fill-rule="evenodd" clip-rule="evenodd" d="M143.432 285.147C94.0369 296.829 54.28 285.336 54.0488 278.715C109.98 283.391 133.159 272.155 129.809 256.358C134.355 269.133 149.373 292.921 143.432 285.147Z" fill="#D8D8D8"/>
<path d="M143.951 285.335C23.034 309.111 30.661 243.611 30.661 243.611C30.661 243.611 87.8467 261.853 130.623 256.53" stroke="black" stroke-width="2" stroke-linecap="round" stroke-linejoin="round"/>
<path fill-rule="evenodd" clip-rule="evenodd" d="M97.7917 237.885C102.923 237.705 105.062 271.848 121.907 289.567C121.907 289.567 134.691 296.056 146.754 286.847L147.676 286.936C157.762 289.969 186.275 289.404 191.59 288.99C202.204 303.877 223.148 293.342 223.148 293.342C224.56 290.959 225.924 288.465 227.239 285.889C234.047 287.507 245.82 283.508 245.715 280.496C256.699 252.888 261.477 232.169 261.249 221.978C261.021 211.786 254.112 182.046 248.605 163.409C247.819 160.752 241.847 152.341 241.159 150.024C196.711 139.21 150.41 141.509 150.41 141.509L129.504 148.357C129.504 148.357 94.0634 188.826 96.1716 191.489C92.499 209.656 93.0052 224.152 97.7917 237.885Z" fill="white"/>
<path fill-rule="evenodd" clip-rule="evenodd" d="M93.9911 234.559C93.9911 234.559 101.362 271.07 118.242 288.953L147.367 291.852L153.995 296.34C156.488 297.096 167.871 298.519 174.618 295.62C179.036 293.721 177.899 289.726 183.6 288.93C192.566 287.677 204.779 289.778 211.433 291.941C212.847 289.537 219.727 286.992 226.427 287.434C228.377 277.627 229.477 252.66 229.477 252.66C229.477 252.66 221.043 276.409 210.903 276.763C200.763 277.117 196.403 253.815 196.403 253.815C196.403 253.815 208.775 218.164 200.931 218.438C195.002 218.645 176.937 254.495 176.937 254.495C176.937 254.495 185.55 285.681 183.521 286.673C168.898 293.82 148.054 248.962 147.71 248.252C138.344 228.923 130.992 174.741 163.66 157.786C170.904 154.026 158.595 138.21 158.595 138.21C158.595 138.21 113.447 151.647 102.341 175.741C88.0553 206.734 93.7783 228.465 93.9911 234.559Z" fill="#D8D8D8"/>
<path fill-rule="evenodd" clip-rule="evenodd" d="M249.187 216.232C252.678 230.42 244.084 263.994 224.003 292.633C224.003 292.633 202.678 301.83 192.08 288.95C192.08 288.95 201.353 245.187 203.482 231.309" fill="white"/>
<path d="M249.187 216.232C252.678 230.42 244.084 263.994 224.003 292.633C224.003 292.633 202.678 301.83 192.08 288.95C192.08 288.95 201.353 245.187 203.482 231.309" stroke="black" stroke-width="2" stroke-linecap="round" stroke-linejoin="round"/>
<path d="M238.893 155.48C238.893 155.48 262.185 180.225 261.675 229.577C261.675 229.577 260.151 260.237 243.398 284.498C243.398 284.498 235.699 289.096 226.199 286.908" stroke="black" stroke-width="2" stroke-linecap="round" stroke-linejoin="round"/>
<path d="M156.73 138.275C156.73 138.275 78.1139 155.351 96.5277 235.887C96.5277 235.887 103.894 272.157 120.78 289.918C120.78 289.918 142.064 292.841 149.8 291.746" stroke="black" stroke-width="2" stroke-linecap="round" stroke-linejoin="round"/>
<path d="M193.391 287.338C192.825 287.403 189.376 287.861 185.204 287.898" stroke="black" stroke-width="2" stroke-linecap="round" stroke-linejoin="round"/>
<path d="M120.443 192.162C120.443 192.162 118.939 253.841 152.676 294.677C152.676 294.677 174.371 303.795 183.841 287.982C183.841 287.982 171.416 237.654 168.276 221.634" stroke="black" stroke-width="2" stroke-linecap="round" stroke-linejoin="round"/>
<path fill-rule="evenodd" clip-rule="evenodd" d="M154.119 101.969C154.119 101.969 184.276 40.7429 194.717 41.3405C201.413 41.7204 213.31 73.9992 213.31 73.9992" fill="#D8D8D8"/>
<path fill-rule="evenodd" clip-rule="evenodd" d="M184.069 82.9078C185.142 67.5713 189.273 52.7743 197.417 43.6002C202.063 38.3653 213.113 76.8132 213.113 76.8132C213.113 76.8132 192.283 79.9257 184.069 82.9078Z" fill="white"/>
<path d="M155.605 102.257C155.605 102.257 185.012 42.3027 195.187 42.8844C201.712 43.2543 213.295 74.8535 213.295 74.8535" stroke="black" stroke-width="2" stroke-linecap="round" stroke-linejoin="round"/>
<path d="M184.688 74.0614C184.688 74.0614 191.994 49.7073 195.896 44.4451" stroke="black" stroke-width="2" stroke-linecap="round" stroke-linejoin="round"/>
<path fill-rule="evenodd" clip-rule="evenodd" d="M284.275 103.049C284.218 106.308 296.385 66.2479 292.872 61.3135C288.19 54.6617 241.531 79.2036 241.531 79.2036L284.275 103.049Z" fill="#D8D8D8"/>
<path fill-rule="evenodd" clip-rule="evenodd" d="M284.275 103.049C287.314 94.1075 298.436 65.7185 294.923 60.784C290.241 54.1323 259.493 83.2175 259.493 83.2175L284.275 103.049Z" fill="white"/>
<path d="M284.542 103.341C284.542 103.341 296.981 65.7631 293.583 60.8716C289.054 54.2777 241.533 79.033 241.533 79.033" stroke="black" stroke-width="2" stroke-linecap="round" stroke-linejoin="round"/>
<path d="M265.584 78.6496C265.584 78.6496 285.665 61.4403 293.521 59.8085" stroke="black" stroke-width="2" stroke-linecap="round" stroke-linejoin="round"/>
<path fill-rule="evenodd" clip-rule="evenodd" d="M156.961 145.825C148.245 125.703 147.055 118.433 156.228 100.38C158.86 95.2011 170.776 81.7102 193.929 76.3932C203.922 74.0986 223.583 70.7506 243.675 74.6561C263.767 78.5616 277.92 97.1268 277.92 97.1268C277.92 97.1268 286.391 109.142 287.305 117.029C289.368 134.823 279.16 148.149 279.16 148.149L265.186 162.638C265.186 162.638 239.066 172.997 228.999 172.881C183.74 172.361 161.715 156.799 156.961 145.825Z" fill="white"/>
<path fill-rule="evenodd" clip-rule="evenodd" d="M221.128 194.143C204.008 200.718 200.543 203.862 187.307 195.324C159.747 177.547 149.483 143.018 151.423 127.514C181.348 181.724 254.82 160.787 279.548 148.305C279.548 148.305 265.575 164.639 252.246 170.384C243.258 180.741 238.248 187.568 221.128 194.143Z" fill="#D8D8D8"/>
<path d="M176.027 158.478C176.027 158.478 197.669 174.029 225.702 173.734C238.808 173.618 258.404 171.778 274.799 154.77C291.442 137.506 300.066 98.5265 253.89 78.8096C241.745 73.6264 220.617 73.6465 204.468 75.3272C189.386 76.8862 155.21 86.0405 149.922 117.426C148.797 124.039 152.034 136.227 155.156 145.809" stroke="black" stroke-width="2" stroke-linecap="round" stroke-linejoin="round"/>
<path d="M274.854 107.099C276.281 109.491 277.1 112.314 277.147 115.332C277.202 124.057 270.473 131.143 262.114 131.183C253.95 131.216 247.273 124.488 246.909 116.048" stroke="black" stroke-width="2" stroke-linecap="round" stroke-linejoin="round"/>
<path d="M277.8 106.79C277.8 106.79 266.47 104.018 246.822 114.74" stroke="black" stroke-width="2" stroke-linecap="round" stroke-linejoin="round"/>
<path d="M190.851 93.7194C190.851 93.7194 223.349 93.1485 235.416 112.981" stroke="black" stroke-width="2" stroke-linecap="round" stroke-linejoin="round"/>
<path d="M208.852 113.267C207.75 117.221 208.901 120.977 211.464 121.72C214.027 122.463 217.052 119.838 218.148 115.93C219.25 111.975 218.099 108.219 215.536 107.477C212.972 106.734 209.954 109.312 208.852 113.267Z" fill="black"/>
<path d="M258.738 120.612C257.636 124.566 258.786 128.322 261.35 129.065C263.913 129.808 266.937 127.183 268.033 123.275C269.135 119.32 267.985 115.564 265.421 114.822C262.858 114.079 259.84 116.657 258.738 120.612Z" fill="black"/>
<path d="M233.01 118.953C234.374 119.102 240.988 119.808 240.988 119.808C240.988 119.808 247.602 120.514 248.967 120.663C250.331 120.812 246.241 129.252 240.086 128.611C233.918 127.924 231.645 118.804 233.01 118.953Z" fill="black"/>
<path d="M240.226 127.392C240.226 127.392 238.008 138.095 228.995 147.8" stroke="black" stroke-width="2" stroke-linecap="round" stroke-linejoin="round"/>
<path d="M241.787 146.489C241.787 146.489 241.208 137.472 239.76 126.789" stroke="black" stroke-width="2" stroke-linecap="round" stroke-linejoin="round"/>
<path d="M245.271 152.749C237.288 159.9 231.719 150.89 231.719 150.89" stroke="black" stroke-width="2" stroke-linecap="round" stroke-linejoin="round"/>
<path d="M229.999 108.919C229.903 119.034 220.683 127.147 209.406 127.039C198.129 126.931 189.066 118.644 189.162 108.53C189.201 104.44 190.731 100.678 193.286 97.6542" stroke="black" stroke-width="2" stroke-linecap="round" stroke-linejoin="round"/>
<path d="M213.254 212.465L199.685 209.827L202.331 196.213L215.9 198.851L213.254 212.465V212.465Z" fill="black"/>
<path d="M216.449 196.024L202.88 193.386L205.527 179.772L219.096 182.41L216.449 196.024V196.024Z" fill="black"/>
<path d="M200.063 192.838L186.494 190.201L189.14 176.587L202.709 179.224L200.063 192.838Z" fill="black"/>
<path d="M206.196 191.142L214.259 192.709L215.832 184.619L207.769 183.052L206.196 191.142Z" fill="#D8D8D8"/>
<path d="M203.001 207.583L211.064 209.15L212.637 201.06L204.573 199.493L203.001 207.583Z" fill="#D8D8D8"/>
<path d="M189.809 187.956L197.873 189.524L199.445 181.434L191.382 179.866L189.809 187.956Z" fill="#D8D8D8"/>
<path d="M212.723 186.723L209.861 186.167L209.303 189.038L212.165 189.594L212.723 186.723Z" fill="black"/>
<path d="M196.336 183.538L193.475 182.982L192.917 185.852L195.778 186.408L196.336 183.538Z" fill="black"/>
<path d="M209.527 203.164L206.666 202.608L206.108 205.479L208.969 206.035L209.527 203.164Z" fill="black"/>
<path d="M187.363 201.699L184.502 201.143L183.944 204.014L186.805 204.57L187.363 201.699Z" fill="black"/>
<path d="M197.896 203.747L195.035 203.191L194.477 206.062L197.338 206.618L197.896 203.747Z" fill="black"/>
<path d="M193.605 197.587L190.744 197.03L189.138 205.294L191.999 205.851L193.605 197.587Z" fill="black"/>
<path d="M199.453 195.744L196.592 195.188L196.034 198.058L198.895 198.615L199.453 195.744Z" fill="black"/>
<path d="M188.812 193.541L186.168 193.026L185.069 198.681L187.713 199.195L188.812 193.541Z" fill="black"/>
<path d="M197.406 206.27L184.01 203.666L183.452 206.537L196.848 209.14L197.406 206.27Z" fill="black"/>
<path d="M188.551 177.608C176.997 175.362 164.655 167.333 151.525 153.52" stroke="black" stroke-width="2" stroke-linecap="round" stroke-linejoin="round"/>
<path d="M252.106 171.535C239.795 185.649 217.683 183.272 217.683 183.272" stroke="black" stroke-width="2" stroke-linecap="round" stroke-linejoin="round"/>
<path opacity="0.22" d="M251.572 353.109C186.028 355.398 132.434 344.092 131.868 327.857C131.301 311.622 183.975 296.606 249.519 294.317C315.062 292.028 368.656 303.333 369.223 319.568C369.79 335.803 317.116 350.82 251.572 353.109Z" fill="black"/>
<path d="M338.494 312.294L273.413 280.443L155.194 293.102L155.921 313.944L216.127 345.853L339.229 333.135C339.229 333.135 335.201 329.47 335.056 325.332C334.912 321.194 338.501 312.294 338.501 312.294L338.494 312.294Z" fill="#898578"/>
<path d="M337.383 312.864L273.232 281.468L156.225 293.998L156.901 313.331L216.327 344.827L337.739 332.283L335.123 326.567L334.993 326.283L335.048 325.976L337.383 312.864Z" stroke="black" stroke-width="2"/>
<path d="M329.209 290.682L264.128 258.831L145.908 271.49L148.87 279.304L146.636 292.331L206.842 324.24L329.943 311.523L329.216 290.681L329.209 290.682Z" fill="#C4BFAD"/>
<path d="M328.911 310.624L328.237 291.32L263.947 259.856L147.303 272.347L149.805 278.95L149.96 279.358L149.766 279.749L147.059 285.205L147.588 291.704L207.042 323.214L328.911 310.624Z" stroke="black" stroke-width="2"/>
<path d="M321.073 301.8L206.228 314.935L153.205 285.86" stroke="black" stroke-width="2" stroke-linecap="round" stroke-linejoin="round"/>
<path d="M322.035 294.454L207.19 307.589L154.167 278.514" stroke="black" stroke-width="2" stroke-linecap="round" stroke-linejoin="round"/>
<path d="M332.792 288.415C334.464 288.356 340.806 291.146 339.286 291.199C337.766 291.252 222.205 314.831 222.205 314.831L156.779 283.105L176.414 277.369" fill="#E5E3C1"/>
<path d="M332.792 288.415C334.464 288.356 340.806 291.146 339.286 291.199C337.766 291.252 222.205 314.831 222.205 314.831L156.779 283.105L176.414 277.369" stroke="black" stroke-width="2" stroke-linecap="round" stroke-linejoin="round"/>
<path d="M339.398 268.39L274.317 236.539L156.098 249.198L156.826 270.039L217.032 301.948L340.133 289.231L339.405 268.389L339.398 268.39Z" fill="#E5E3C1"/>
<path d="M155.796 249.208L156.524 270.05L216.73 301.959L338.879 288.202L335.443 271.181L216.157 284.729L155.796 249.208Z" fill="#C4BFAD"/>
<path d="M339.101 288.332L338.427 269.028L274.137 237.564L157.13 250.093L157.805 269.426L217.231 300.922L339.101 288.332Z" stroke="black" stroke-width="2"/>
<path d="M332.58 317.241L217.735 330.376L210.444 326.378" stroke="black" stroke-width="2" stroke-linecap="round" stroke-linejoin="round"/>
<path d="M329.191 325.537L217.99 337.679L169.439 311.799" stroke="black" stroke-width="2" stroke-linecap="round" stroke-linejoin="round"/>
<path d="M332.225 272.162L217.38 285.297L164.357 256.222" stroke="black" stroke-width="2" stroke-linecap="round" stroke-linejoin="round"/>
<path d="M332.522 280.682L217.677 293.817L164.654 264.742" stroke="black" stroke-width="2" stroke-linecap="round" stroke-linejoin="round"/>
<path d="M303.919 264.247L227.976 273.194" stroke="#C4BFAD" stroke-width="2" stroke-linecap="round" stroke-linejoin="round"/>
<path d="M291.509 257.875L215.566 266.823" stroke="#C4BFAD" stroke-width="2" stroke-linecap="round" stroke-linejoin="round"/>
<path d="M276.601 249.725L236.31 254.472" stroke="#C4BFAD" stroke-width="2" stroke-linecap="round" stroke-linejoin="round"/>
<path d="M206.247 259.176L184.293 263.065C184.293 263.065 183.928 308.704 175.837 312.947C174.526 307.042 174.654 301.106 174.654 301.106L165.428 307.4C165.428 307.4 172.168 294.238 171.841 284.868C171.513 275.497 171.457 257.954 171.457 257.954L183.071 254.196L206.247 259.176Z" fill="#726FD4"/>
<path d="M206.247 259.176L184.293 263.065L171.457 257.954L183.071 254.196L206.247 259.176Z" fill="#BAB8FF"/>
<path d="M206.247 259.176L184.293 263.065C184.293 263.065 183.928 308.704 175.837 312.947C174.526 307.042 174.654 301.106 174.654 301.106L165.428 307.399C165.428 307.399 172.168 294.238 171.841 284.868C171.513 275.497 171.457 257.954 171.457 257.954L183.071 254.196L206.247 259.176Z" stroke="black" stroke-width="2" stroke-linecap="round" stroke-linejoin="round"/>
<path d="M198.339 259.543C187.247 259.931 178.16 257.52 178.043 254.159C177.925 250.797 186.822 247.758 197.914 247.371C209.006 246.984 218.093 249.395 218.211 252.756C218.328 256.117 209.431 259.156 198.339 259.543Z" fill="#D8D8D8" stroke="#979797"/>
<path d="M218.095 249.47C217.978 246.109 208.891 243.698 197.799 244.086C186.707 244.473 177.81 247.512 177.928 250.873C177.95 251.509 178.033 253.889 178.055 254.525C178.172 257.886 187.259 260.297 198.351 259.909C209.444 259.522 218.34 256.483 218.223 253.122C218.201 252.486 218.118 250.106 218.095 249.47Z" fill="#F37777" stroke="black" stroke-width="2"/>
<path d="M218.095 249.47C217.978 246.109 208.891 243.698 197.799 244.086C186.707 244.473 177.81 247.512 177.928 250.873C177.95 251.509 178.033 253.889 178.055 254.525C178.172 257.886 187.259 260.297 198.351 259.909C209.444 259.522 218.34 256.483 218.223 253.122C218.201 252.486 218.118 250.106 218.095 249.47Z" fill="#F37777"/>
<path d="M196.919 247.976C185.827 248.363 177.81 247.512 177.928 250.873C177.95 251.509 178.033 253.889 178.055 254.525C178.173 257.886 187.26 260.297 198.352 259.909C209.444 259.522 218.341 256.483 218.223 253.122C218.206 252.628 218.739 250.887 210.792 249.725C209.427 249.526 188.653 252.484 185.281 252.038C183.017 251.739 197.913 247.941 196.919 247.976Z" fill="#BF4444"/>
<path d="M218.095 249.47C217.978 246.109 208.891 243.698 197.799 244.086C186.707 244.473 177.81 247.512 177.928 250.873C177.95 251.509 178.033 253.889 178.055 254.525C178.172 257.886 187.259 260.297 198.351 259.909C209.444 259.522 218.34 256.483 218.223 253.122C218.201 252.486 218.118 250.106 218.095 249.47Z" stroke="black" stroke-width="2"/>
<path d="M212.03 250.291C212.089 251.972 205.869 253.553 198.138 253.823C190.408 254.093 184.093 252.95 184.034 251.269C183.976 249.588 190.195 248.007 197.926 247.737" fill="#F37777"/>
<path d="M212.03 250.291C212.089 251.972 205.869 253.553 198.138 253.823V253.823C190.408 254.093 184.093 252.95 184.034 251.269C183.976 249.588 190.195 248.007 197.926 247.737" stroke="black" stroke-width="2" stroke-linecap="round" stroke-linejoin="round"/>
<path d="M106.255 292.374C106.138 289.013 97.0511 286.602 85.959 286.989C74.867 287.377 65.9703 290.415 66.0877 293.777C66.1099 294.413 66.193 296.792 66.2152 297.428C66.3326 300.79 75.4196 303.2 86.5116 302.813C97.6037 302.426 106.5 299.387 106.383 296.026C106.361 295.39 106.278 293.01 106.255 292.374Z" fill="#E3B66B" stroke="black" stroke-width="2"/>
<path d="M76.7194 274.281C78.8806 289.659 84.7071 319.281 84.7071 319.281L91.5478 318.319C91.5478 318.319 90.9119 297.809 87.3945 272.781C81.3495 273.631 83.6255 273.311 76.7194 274.281Z" fill="#647DD7"/>
<path d="M76.7196 274.281C78.8808 289.659 84.7074 319.281 84.7074 319.281L87.7063 318.859C87.7063 318.859 85.6776 298.545 82.1602 273.517C76.1152 274.366 82.2364 273.506 76.7196 274.281Z" fill="#314489"/>
<path d="M77.851 275.132C78.9548 282.753 80.8531 293.432 82.507 302.366C83.3698 307.027 84.1653 311.208 84.745 314.223C85.0348 315.731 85.2707 316.947 85.4341 317.787C85.4601 317.92 85.4843 318.044 85.5065 318.159L90.5154 317.455C90.515 317.446 90.5147 317.438 90.5144 317.429C90.4902 316.822 90.4518 315.927 90.3947 314.773C90.2804 312.466 90.0915 309.128 89.7928 305.008C89.2112 296.986 88.2137 286.006 86.5423 273.911L77.851 275.132Z" stroke="black" stroke-width="2" stroke-linecap="round" stroke-linejoin="round"/>
<path d="M88.399 271.174C88.1829 269.637 85.0379 268.808 81.3743 269.323C77.7107 269.838 74.9159 271.501 75.1319 273.038C75.1728 273.329 75.3257 274.417 75.3666 274.708C75.5826 276.245 78.7277 277.074 82.3913 276.559C86.0549 276.044 88.8497 274.381 88.6337 272.844C88.5928 272.553 88.4399 271.465 88.399 271.174Z" fill="#E3B66B" stroke="black" stroke-width="2"/>
<path d="M78.6659 226.656L71.8252 227.617C71.8252 227.617 74.3892 257.698 76.5504 273.075C82.1423 274.134 85.5648 272.885 87.2256 271.575C83.7082 246.547 78.6659 226.656 78.6659 226.656Z" fill="#647DD7"/>
<path d="M75.5317 227.097L71.8254 227.617C71.8254 227.617 74.3894 257.698 76.5506 273.075C82.1425 274.134 80.4066 273.61 82.0674 272.3C78.55 247.272 75.5317 227.097 75.5317 227.097Z" fill="#314489"/>
<path d="M77.9119 227.772L72.903 228.476C72.9131 228.592 72.924 228.718 72.9359 228.853C73.0101 229.705 73.1187 230.939 73.2556 232.469C73.5296 235.527 73.9175 239.765 74.3728 244.484C75.2558 253.635 76.3909 264.572 77.4406 272.216C81.8819 272.922 84.6707 272.05 86.1502 271.112C84.4118 258.868 82.3177 247.891 80.648 239.936C79.7997 235.893 79.0611 232.632 78.535 230.383C78.2719 229.258 78.062 228.387 77.918 227.797C77.9159 227.788 77.9139 227.78 77.9119 227.772Z" stroke="black" stroke-width="2" stroke-linecap="round" stroke-linejoin="round"/>
<path d="M75.1029 224.697C71.8196 225.158 71.4915 229.63 71.5589 230.11C71.9152 232.645 73.8521 232.714 76.1835 232.386C78.5149 232.058 80.3579 231.459 80.0016 228.924C79.9342 228.444 78.3861 224.236 75.1029 224.697Z" fill="#E3B66B" stroke="black" stroke-width="2"/>
<path opacity="0.22" d="M78.316 347.339C55.1235 348.148 36.1577 344.091 35.9546 338.276C35.7516 332.461 54.3881 327.09 77.5806 326.28C100.773 325.47 119.739 329.528 119.942 335.343C120.145 341.158 101.508 346.529 78.316 347.339Z" fill="black"/>
<path d="M106.022 299.418C113.676 304.664 119.146 312.554 119.431 320.714C119.938 335.237 105.377 340.147 87.2267 340.781C69.0761 341.414 54.2086 337.532 53.7014 323.01C53.4089 314.632 58.5886 306.155 66.1792 300.373" fill="#314489"/>
<path d="M66.8529 315.686C69.2595 313.036 90.2399 315.022 103.587 301.912C106.54 299.011 107.694 299.689 110.578 301.668C114.723 304.512 117.382 309.918 117.681 318.482C118.188 333.004 55.2817 328.431 66.8529 315.686Z" fill="#647DD7"/>
<path d="M105.244 298.898C113.302 304.134 119.136 312.28 119.43 320.714C119.937 335.237 105.377 340.147 87.2264 340.781C69.0757 341.414 54.2083 337.532 53.7011 323.01C53.4007 314.406 58.8709 305.699 66.7965 299.912" stroke="black" stroke-width="2"/>
<path d="M66.172 296.211C66.1942 296.847 66.2773 299.227 66.2996 299.863C66.4169 303.224 75.504 305.635 86.596 305.247C97.688 304.86 106.585 301.821 106.467 298.46C106.445 297.824 106.362 295.444 106.34 294.808C106.34 294.808 93.4413 297.696 86.9496 297.923C80.0521 298.164 66.172 296.211 66.172 296.211Z" fill="#E3B66B"/>
<path d="M66.1715 296.211C66.1937 296.847 66.2768 299.227 66.299 299.863C66.4164 303.224 75.5034 305.635 86.5955 305.247C97.6875 304.86 101.287 303.225 101.17 299.864C101.148 299.228 101.065 296.848 101.043 296.212C101.043 296.212 93.4408 297.696 86.949 297.923C80.0515 298.164 66.1715 296.211 66.1715 296.211Z" fill="#BA8C3F"/>
<path d="M66.172 296.211C66.1943 296.847 66.2773 299.227 66.2996 299.863C66.4169 303.224 75.504 305.635 86.596 305.247C97.688 304.86 106.585 301.821 106.467 298.46C106.445 297.824 106.362 295.444 106.34 294.808" stroke="black" stroke-width="2" stroke-linecap="round" stroke-linejoin="round"/>
<path d="M71.0155 296.865C75.0638 297.726 80.4486 298.15 86.3407 297.944C92.5318 297.728 98.1159 296.857 102.148 295.622" stroke="black" stroke-width="2" stroke-linecap="round" stroke-linejoin="round"/>
<path d="M272.214 141.554C261.794 141.918 253.052 133.766 252.688 123.346C252.324 112.927 260.476 104.185 270.896 103.821C281.316 103.457 290.058 111.609 290.422 122.029C290.785 132.448 282.633 141.19 272.214 141.554Z" fill="url(#paint1_linear)"/>
<path fill-rule="evenodd" clip-rule="evenodd" d="M249.006 122.598C249.447 135.224 259.886 145.107 272.322 144.672C274.366 144.601 276.336 144.255 278.2 143.672C281.666 148.117 287.745 146.117 285.48 139.787C290.917 135.432 294.307 128.595 294.042 121.026C293.602 108.4 283.162 98.5177 270.726 98.952C258.289 99.3863 248.565 109.973 249.006 122.598ZM252.609 122.473C252.979 133.078 261.748 141.379 272.195 141.015C282.641 140.65 290.81 131.757 290.44 121.152C290.069 110.546 281.3 102.245 270.854 102.61C260.407 102.974 252.238 111.867 252.609 122.473Z" fill="#E3B66B"/>
<path d="M278.2 143.672L277.901 142.718L278.562 142.511L278.988 143.057L278.2 143.672ZM285.48 139.787L284.539 140.124L284.298 139.452L284.855 139.006L285.48 139.787ZM272.357 145.672C259.355 146.126 248.466 135.796 248.006 122.633L250.005 122.564C250.427 134.651 260.417 144.087 272.288 143.673L272.357 145.672ZM278.498 144.626C276.55 145.236 274.491 145.597 272.357 145.672L272.288 143.673C274.24 143.605 276.122 143.275 277.901 142.718L278.498 144.626ZM286.422 139.45C287.039 141.175 287.126 142.713 286.743 143.98C286.354 145.263 285.498 146.198 284.392 146.685C282.195 147.653 279.346 146.769 277.411 144.287L278.988 143.057C280.519 145.021 282.443 145.359 283.586 144.855C284.15 144.607 284.606 144.133 284.829 143.399C285.056 142.65 285.054 141.564 284.539 140.124L286.422 139.45ZM295.042 120.991C295.318 128.885 291.781 136.021 286.105 140.567L284.855 139.006C290.053 134.842 293.296 128.305 293.043 121.061L295.042 120.991ZM270.691 97.9526C283.694 97.4986 294.582 107.828 295.042 120.991L293.043 121.061C292.621 108.973 282.631 99.5369 270.761 99.9514L270.691 97.9526ZM248.006 122.633C247.547 109.47 257.688 98.4067 270.691 97.9526L270.761 99.9514C258.89 100.366 249.583 110.476 250.005 122.564L248.006 122.633ZM272.23 142.014C261.217 142.399 251.998 133.651 251.609 122.508L253.608 122.438C253.96 132.505 262.279 140.36 272.16 140.015L272.23 142.014ZM291.439 121.117C291.828 132.26 283.242 141.629 272.23 142.014L272.16 140.015C282.04 139.67 289.792 131.254 289.44 121.186L291.439 121.117ZM270.819 101.61C281.831 101.226 291.05 109.974 291.439 121.117L289.44 121.186C289.089 111.119 280.769 103.264 270.888 103.609L270.819 101.61ZM251.609 122.508C251.22 111.365 259.806 101.995 270.819 101.61L270.888 103.609C261.008 103.954 253.257 112.37 253.608 122.438L251.609 122.508Z" fill="black"/>
<path d="M284.092 146.014C284.961 146.731 302.132 182.619 288.475 202.482C280.392 214.237 259.897 207.445 259.897 207.445" stroke="black" stroke-width="2"/>
<defs>
<filter id="filter0_d" x="12.5645" y="22.1372" width="376.028" height="355.459" filterUnits="userSpaceOnUse" color-interpolation-filters="sRGB">
<feFlood flood-opacity="0" result="BackgroundImageFix"/>
<feColorMatrix in="SourceAlpha" type="matrix" values="0 0 0 0 0 0 0 0 0 0 0 0 0 0 0 0 0 0 127 0"/>
<feOffset dy="2"/>
<feGaussianBlur stdDeviation="4"/>
<feColorMatrix type="matrix" values="0 0 0 0 0 0 0 0 0 0 0 0 0 0 0 0 0 0 0.1 0"/>
<feBlend mode="normal" in2="BackgroundImageFix" result="effect1_dropShadow"/>
<feBlend mode="normal" in="SourceGraphic" in2="effect1_dropShadow" result="shape"/>
</filter>
<linearGradient id="paint0_linear" x1="303.97" y1="105.927" x2="292.816" y2="147.131" gradientUnits="userSpaceOnUse">
<stop stop-color="white" stop-opacity="0.01"/>
<stop offset="1" stop-color="white"/>
</linearGradient>
<linearGradient id="paint1_linear" x1="303.97" y1="105.926" x2="292.816" y2="147.131" gradientUnits="userSpaceOnUse">
<stop stop-color="white" stop-opacity="0.01"/>
<stop offset="1" stop-color="white"/>
</linearGradient>
<clipPath id="clip0">
<rect width="380" height="380" transform="matrix(-0.999391 0.0348995 0.0348995 0.999391 380 0)" fill="white"/>
</clipPath>
</defs>
</svg>
